<?xml version="1.0" standalone="no"?>
<!DOCTYPE svg PUBLIC "-//W3C//DTD SVG 20010904//EN"
 "http://www.w3.org/TR/2001/REC-SVG-20010904/DTD/svg10.dtd">
<svg version="1.0" xmlns="http://www.w3.org/2000/svg"
 width="512.000000pt" height="512.000000pt" viewBox="0 0 512.000000 512.000000"
 preserveAspectRatio="xMidYMid meet">
<metadata>
Created by potrace 1.11, written by Peter Selinger 2001-2013
</metadata>
<g transform="translate(0.000000,512.000000) scale(0.100000,-0.100000)"
fill="#000000" stroke="none">
<path d="M2398 5115 c-2 -2 -41 -6 -88 -10 -46 -3 -87 -8 -90 -10 -3 -1 -27
-5 -55 -9 -230 -27 -560 -137 -805 -268 -87 -46 -290 -174 -336 -211 -11 -9
-48 -39 -84 -68 -91 -74 -285 -268 -364 -366 -160 -196 -321 -474 -409 -708
-33 -86 -83 -246 -92 -294 -2 -13 -7 -31 -10 -41 -7 -23 -9 -32 -29 -150 -26
-159 -28 -188 -30 -393 -4 -279 24 -486 98 -745 216 -750 780 -1369 1511
-1660 153 -61 330 -113 462 -136 15 -3 51 -10 78 -15 28 -5 57 -9 65 -9 8 0
42 -4 75 -8 136 -19 518 -10 665 15 101 17 125 22 190 37 929 213 1683 969
1904 1907 24 99 27 117 42 222 3 28 9 59 11 70 2 11 7 112 9 224 4 178 -1 296
-21 439 -5 33 -6 40 -25 132 -6 30 -14 66 -16 80 -21 105 -85 297 -147 440
-353 814 -1136 1406 -2002 1515 -28 3 -64 8 -80 11 -31 5 -423 13 -427 9z"/>
</g>
</svg>
